<svg xmlns="http://www.w3.org/2000/svg" viewBox="0 0 1080 1080" width="1080" height="1080" preserveAspectRatio="xMidYMid meet" style="width: 100%; height: 100%; transform: translate3d(0px, 0px, 0px); content-visibility: visible;"><defs><clipPath id="__lottie_element_2"><rect width="1080" height="1080" x="0" y="0"></rect></clipPath><clipPath id="__lottie_element_13"><path d="M0,0 L1080,0 L1080,1080 L0,1080z"></path></clipPath><clipPath id="__lottie_element_14"><path fill="#ffffff" clip-rule="nonzero" d=" M942,466 C942,466 138,466 138,466 C138,466 138,614 138,614 C138,614 942,614 942,614 C942,614 942,466 942,466" fill-opacity="1"></path></clipPath></defs><g clip-path="url(#__lottie_element_2)"><g clip-path="url(#__lottie_element_13)" style="display: block;" transform="matrix(1,0,0,1,0,0)" opacity="1"><g clip-path="url(#__lottie_element_14)"><g transform="matrix(1,0,0,1,0,0)" opacity="1" style="display: block;"><g opacity="1" transform="matrix(1,0,0,1,202.61599731445312,539.7730102539062)"><path fill="rgb(255,255,255)" fill-opacity="1" d=" M0.9580000042915344,51.18299865722656 C-6.01200008392334,51.18299865722656 -12.116000175476074,49.91600036621094 -17.34000015258789,47.4119987487793 C-22.577999114990234,44.86199951171875 -26.673999786376953,41.23099899291992 -29.641000747680664,36.53300094604492 C-32.608001708984375,31.804000854492188 -34.13800048828125,26.17799949645996 -34.21500015258789,19.656999588012695 C-34.21500015258789,19.656999588012695 -18.389999389648438,19.656999588012695 -18.389999389648438,19.656999588012695 C-18.312999725341797,24.64900016784668 -16.597999572753906,28.913999557495117 -13.260000228881836,32.452999114990234 C-9.890999794006348,36.00699996948242 -5.192999839782715,37.76900100708008 0.8339999914169312,37.76900100708008 C6.3979997634887695,37.76900100708008 10.725000381469727,36.47100067138672 13.815999984741211,33.875 C16.937000274658203,31.277999877929688 18.513999938964844,27.924999237060547 18.513999938964844,23.798999786376953 C18.513999938964844,20.305999755859375 17.586000442504883,17.400999069213867 15.732000350952148,15.083000183105469 C13.907999992370605,12.779999732971191 11.0649995803833,10.725000381469727 7.201000213623047,8.901000022888184 C3.322000026702881,7.046000003814697 -1.6690000295639038,5.130000114440918 -7.757999897003174,3.1519999504089355 C-15.96399974822998,0.4790000021457672 -22.006999969482422,-3.184000015258789 -25.8700008392334,-7.85099983215332 C-29.749000549316406,-12.503000259399414 -31.680999755859375,-18.236000061035156 -31.680999755859375,-25.035999298095703 C-31.680999755859375,-32.85599899291992 -28.868000030517578,-39.1609992980957 -23.211999893188477,-43.95199966430664 C-17.570999145507812,-48.77299880981445 -9.782999992370605,-51.183998107910156 0.15399999916553497,-51.183998107910156 C9.75100040435791,-51.183998107910156 17.47800064086914,-48.71099853515625 23.334999084472656,-43.76599884033203 C29.177000045776367,-38.82099914550781 32.189998626708984,-31.958999633789062 32.36000061035156,-23.180999755859375 C32.36000061035156,-23.180999755859375 16.41200065612793,-23.180999755859375 16.41200065612793,-23.180999755859375 C16.41200065612793,-25.530000686645508 15.746999740600586,-27.81800079345703 14.434000015258789,-30.042999267578125 C13.104999542236328,-32.268001556396484 11.218999862670898,-34.09199905395508 8.746999740600586,-35.54499816894531 C6.304999828338623,-37.02799987792969 3.306999921798706,-37.77000045776367 -0.27799999713897705,-37.77000045776367 C-4.729000091552734,-37.84700012207031 -8.468999862670898,-36.78099822998047 -11.467000007629395,-34.555999755859375 C-14.480999946594238,-32.33000183105469 -15.979999542236328,-29.332000732421875 -15.979999542236328,-25.591999053955078 C-15.979999542236328,-20.972000122070312 -14.156000137329102,-17.371000289916992 -10.477999687194824,-14.774999618530273 C-6.815000057220459,-12.178000450134277 -0.8190000057220459,-9.520000457763672 7.510000228881836,-6.800000190734863 C12.70300006866455,-5.068999767303467 17.292999267578125,-2.999000072479248 21.295000076293945,-0.6190000176429749 C25.283000946044922,1.7769999504089355 28.434999465942383,4.8520002365112305 30.753000259399414,8.592000007629395 C33.055999755859375,12.300999641418457 34.21500015258789,17.045000076293945 34.21500015258789,22.80900001525879 C34.21500015258789,28.094999313354492 32.88600158691406,32.869998931884766 30.259000778198242,37.1510009765625 C27.615999221801758,41.446998596191406 23.829999923706055,44.86199951171875 18.885000228881836,47.4119987487793 C13.939000129699707,49.91600036621094 7.959000110626221,51.18299865722656 0.9580000042915344,51.18299865722656z"></path></g></g><g transform="matrix(1,0,0,1,0,0)" opacity="1" style="display: block;"><g opacity="1" transform="matrix(1,0,0,1,287.4849853515625,554.2069702148438)"><path fill="rgb(255,255,255)" fill-opacity="1" d=" M-0.03099999949336052,36.75 C-6.706999778747559,36.75 -12.687999725341797,35.23500061035156 -17.95800018310547,32.23699951171875 C-23.243000030517578,29.23900032043457 -27.399999618530273,24.974000930786133 -30.444000244140625,19.44099998474121 C-33.45800018310547,13.923999786376953 -34.957000732421875,7.448999881744385 -34.957000732421875,0.03099999949336052 C-34.957000732421875,-7.418000221252441 -33.45800018310547,-13.907999992370605 -30.444000244140625,-19.440000534057617 C-27.399999618530273,-24.957000732421875 -23.243000030517578,-29.224000930786133 -17.95800018310547,-32.23699951171875 C-12.687999725341797,-35.23500061035156 -6.644999980926514,-36.75 0.15399999916553497,-36.75 C6.9079999923706055,-36.75 12.904000282287598,-35.23500061035156 18.14299964904785,-32.23699951171875 C23.365999221801758,-29.224000930786133 27.476999282836914,-24.957000732421875 30.444000244140625,-19.440000534057617 C33.44200134277344,-13.907999992370605 34.957000732421875,-7.418000221252441 34.957000732421875,0.03099999949336052 C34.957000732421875,7.448999881744385 33.426998138427734,13.923999786376953 30.381999969482422,19.44099998474121 C27.368999481201172,24.974000930786133 23.243000030517578,29.23900032043457 18.018999099731445,32.23699951171875 C12.779999732971191,35.23500061035156 6.769000053405762,36.75 -0.03099999949336052,36.75z M-0.03099999949336052,22.469999313354492 C3.553999900817871,22.469999313354492 6.8460001945495605,21.69700050354004 9.859999656677246,20.121000289916992 C12.904000282287598,18.513999938964844 15.329999923706055,16.041000366210938 17.15399932861328,12.70300006866455 C19.007999420166016,9.333999633789062 19.93600082397461,5.099999904632568 19.93600082397461,0.03099999949336052 C19.93600082397461,-5.1620001792907715 19.007999420166016,-9.395999908447266 17.15399932861328,-12.70300006866455 C15.329999923706055,-15.994999885559082 12.949999809265137,-18.45199966430664 9.982999801635742,-20.05900001525879 C7.015999794006348,-21.66699981689453 3.740000009536743,-22.4689998626709 0.15399999916553497,-22.4689998626709 C-3.430999994277954,-22.4689998626709 -6.752999782562256,-21.66699981689453 -9.79800033569336,-20.05900001525879 C-12.810999870300293,-18.45199966430664 -15.23799991607666,-15.994999885559082 -17.091999053955078,-12.70300006866455 C-18.916000366210938,-9.395999908447266 -19.812000274658203,-5.1620001792907715 -19.812000274658203,0.03099999949336052 C-19.812000274658203,7.742000102996826 -17.864999771118164,13.414999961853027 -13.9399995803833,17.0310001373291 C-10.029999732971191,20.663000106811523 -5.394000053405762,22.469999313354492 -0.03099999949336052,22.469999313354492z"></path></g></g><g transform="matrix(1,0,0,1,0,0)" opacity="1" style="display: block;"><g opacity="1" transform="matrix(1,0,0,1,370.59100341796875,538.3820190429688)"><path fill="rgb(255,255,255)" fill-opacity="1" d=" M-31.0310001373291,50.904998779296875 C-31.0310001373291,50.904998779296875 -31.0310001373291,37.92399978637695 -31.0310001373291,37.92399978637695 C-31.0310001373291,37.92399978637695 -7.604000091552734,37.92399978637695 -7.604000091552734,37.92399978637695 C-7.604000091552734,37.92399978637695 -7.604000091552734,-33.22600173950195 -7.604000091552734,-33.22600173950195 C-7.604000091552734,-36.347999572753906 -9.118000030517578,-37.92399978637695 -12.116000175476074,-37.92399978637695 C-12.116000175476074,-37.92399978637695 -29.05299949645996,-37.92399978637695 -29.05299949645996,-37.92399978637695 C-29.05299949645996,-37.92399978637695 -29.05299949645996,-50.90599822998047 -29.05299949645996,-50.90599822998047 C-29.05299949645996,-50.90599822998047 -9.395999908447266,-50.90599822998047 -9.395999908447266,-50.90599822998047 C-3.9570000171661377,-50.90599822998047 0.20000000298023224,-49.45199966430664 3.0899999141693115,-46.577999114990234 C5.965000152587891,-43.73400115966797 7.416999816894531,-39.5620002746582 7.416999816894531,-34.090999603271484 C7.416999816894531,-34.090999603271484 7.416999816894531,37.92399978637695 7.416999816894531,37.92399978637695 C7.416999816894531,37.92399978637695 31.0310001373291,37.92399978637695 31.0310001373291,37.92399978637695 C31.0310001373291,37.92399978637695 31.0310001373291,50.904998779296875 31.0310001373291,50.904998779296875 C31.0310001373291,50.904998779296875 -31.0310001373291,50.904998779296875 -31.0310001373291,50.904998779296875z"></path></g></g><g transform="matrix(1,0,0,1,0,0)" opacity="1" style="display: block;"><g opacity="1" transform="matrix(1,0,0,1,457.1910095214844,539.7730102539062)"><path fill="rgb(255,255,255)" fill-opacity="1" d=" M-36.347999572753906,49.513999938964844 C-36.347999572753906,49.513999938964844 -36.347999572753906,-49.51499938964844 -36.347999572753906,-49.51499938964844 C-36.347999572753906,-49.51499938964844 -20.461000442504883,-49.51499938964844 -20.461000442504883,-49.51499938964844 C-20.461000442504883,-49.51499938964844 0,-4.822000026702881 0,-4.822000026702881 C0,-4.822000026702881 20.523000717163086,-49.51499938964844 20.523000717163086,-49.51499938964844 C20.523000717163086,-49.51499938964844 36.34700012207031,-49.51499938964844 36.34700012207031,-49.51499938964844 C36.34700012207031,-49.51499938964844 36.34700012207031,49.513999938964844 36.34700012207031,49.513999938964844 C36.34700012207031,49.513999938964844 22.06800079345703,49.513999938964844 22.06800079345703,49.513999938964844 C22.06800079345703,49.513999938964844 22.06800079345703,-20.89299964904785 22.06800079345703,-20.89299964904785 C22.06800079345703,-20.89299964904785 5.934000015258789,14.46399974822998 5.934000015258789,14.46399974822998 C5.934000015258789,14.46399974822998 -5.934999942779541,14.46399974822998 -5.934999942779541,14.46399974822998 C-5.934999942779541,14.46399974822998 -22.069000244140625,-20.770999908447266 -22.069000244140625,-20.770999908447266 C-22.069000244140625,-20.770999908447266 -22.069000244140625,49.513999938964844 -22.069000244140625,49.513999938964844 C-22.069000244140625,49.513999938964844 -36.347999572753906,49.513999938964844 -36.347999572753906,49.513999938964844z"></path></g></g><g transform="matrix(1,0,0,1,0,0)" opacity="1" style="display: block;"><g opacity="1" transform="matrix(1,0,0,1,541.4409790039062,554.2069702148438)"><path fill="rgb(255,255,255)" fill-opacity="1" d=" M-5.75,36.75 C-11.312999725341797,36.75 -15.994999885559082,35.79100036621094 -19.7810001373291,33.90599822998047 C-23.535999298095703,31.974000930786133 -26.364999771118164,29.378000259399414 -28.25,26.117000579833984 C-30.104999542236328,22.871999740600586 -31.0310001373291,19.302000045776367 -31.0310001373291,15.42300033569336 C-31.0310001373291,8.545999526977539 -28.527999877929688,3.1679999828338623 -23.489999771118164,-0.7110000252723694 C-18.42099952697754,-4.573999881744385 -11.281000137329102,-6.520999908447266 -2.0399999618530273,-6.520999908447266 C-2.0399999618530273,-6.520999908447266 16.07200050354004,-6.520999908447266 16.07200050354004,-6.520999908447266 C16.07200050354004,-6.520999908447266 16.07200050354004,-8.067000389099121 16.07200050354004,-8.067000389099121 C16.07200050354004,-18.606000900268555 11.156999588012695,-23.892000198364258 1.3589999675750732,-23.892000198364258 C-2.7209999561309814,-23.892000198364258 -6.166999816894531,-22.9950008392334 -8.96399974822998,-21.233999252319336 C-11.729999542236328,-19.503000259399414 -13.569000244140625,-16.72100067138672 -14.465999603271484,-12.888999938964844 C-14.465999603271484,-12.888999938964844 -29.486000061035156,-12.888999938964844 -29.486000061035156,-12.888999938964844 C-28.743999481201172,-20.214000701904297 -25.576000213623047,-26.02400016784668 -19.965999603271484,-30.320999145507812 C-14.324999809265137,-34.60100173950195 -7.2179999351501465,-36.749000549316406 1.3589999675750732,-36.749000549316406 C11.744000434875488,-36.749000549316406 19.285999298095703,-34.183998107910156 23.983999252319336,-29.083999633789062 C28.68199920654297,-24.014999389648438 31.0310001373291,-16.999000549316406 31.0310001373291,-8.067000389099121 C31.0310001373291,-8.067000389099121 31.0310001373291,35.08100128173828 31.0310001373291,35.08100128173828 C31.0310001373291,35.08100128173828 18.297000885009766,35.08100128173828 18.297000885009766,35.08100128173828 C18.297000885009766,35.08100128173828 17.059999465942383,24.756999969482422 17.059999465942383,24.756999969482422 C17.059999465942383,24.756999969482422 16.07200050354004,24.756999969482422 16.07200050354004,24.756999969482422 C13.970999717712402,28.06399917602539 11.343000411987305,30.87700080871582 8.220999717712402,33.22600173950195 C5.130000114440918,35.57500076293945 0.46299999952316284,36.75 -5.75,36.75z M-2.9049999713897705,24.201000213623047 C3.2300000190734863,24.201000213623047 7.820000171661377,22.347000122070312 10.880000114440918,18.63800048828125 C13.970999717712402,14.89799976348877 15.654000282287598,10.152999877929688 15.947999954223633,4.420000076293945 C15.947999954223633,4.420000076293945 -0.4950000047683716,4.420000076293945 -0.4950000047683716,4.420000076293945 C-5.857999801635742,4.420000076293945 -9.642999649047852,5.284999847412109 -11.868000030517578,7.015999794006348 C-14.093999862670898,8.746999740600586 -15.206000328063965,11.189000129699707 -15.206000328063965,14.3100004196167 C-15.206000328063965,17.400999069213867 -14.093999862670898,19.843000411987305 -11.868000030517578,21.604999542236328 C-9.642999649047852,23.336000442504883 -6.659999847412109,24.201000213623047 -2.9049999713897705,24.201000213623047z"></path></g></g><g transform="matrix(1,0,0,1,0,0)" opacity="1" style="display: block;"><g opacity="1" transform="matrix(1,0,0,1,624.6099853515625,545.0269775390625)"><path fill="rgb(255,255,255)" fill-opacity="1" d=" M9.982999801635742,44.2599983215332 C3.0899999141693115,44.2599983215332 -2.380000114440918,42.590999603271484 -6.460000038146973,39.25299835205078 C-10.508999824523926,35.915000915527344 -12.517999649047852,29.950000762939453 -12.517999649047852,21.326000213623047 C-12.517999649047852,21.326000213623047 -12.517999649047852,-13.166999816894531 -12.517999649047852,-13.166999816894531 C-12.517999649047852,-13.166999816894531 -30.19700050354004,-13.166999816894531 -30.19700050354004,-13.166999816894531 C-30.19700050354004,-13.166999816894531 -30.19700050354004,-25.900999069213867 -30.19700050354004,-25.900999069213867 C-30.19700050354004,-25.900999069213867 -19.75,-25.900999069213867 -19.75,-25.900999069213867 C-14.928999900817871,-25.900999069213867 -12.085000038146973,-28.25 -11.220000267028809,-32.948001861572266 C-11.220000267028809,-32.948001861572266 -9.118000030517578,-44.2599983215332 -9.118000030517578,-44.2599983215332 C-9.118000030517578,-44.2599983215332 2.503000020980835,-44.2599983215332 2.503000020980835,-44.2599983215332 C2.503000020980835,-44.2599983215332 2.503000020980835,-25.900999069213867 2.503000020980835,-25.900999069213867 C2.503000020980835,-25.900999069213867 30.19700050354004,-25.900999069213867 30.19700050354004,-25.900999069213867 C30.19700050354004,-25.900999069213867 30.19700050354004,-13.166999816894531 30.19700050354004,-13.166999816894531 C30.19700050354004,-13.166999816894531 2.503000020980835,-13.166999816894531 2.503000020980835,-13.166999816894531 C2.503000020980835,-13.166999816894531 2.503000020980835,21.07900047302246 2.503000020980835,21.07900047302246 C2.503000020980835,24.756999969482422 3.322000026702881,27.32200050354004 4.97599983215332,28.805999755859375 C6.613999843597412,30.259000778198242 9.458000183105469,30.969999313354492 13.505999565124512,30.969999313354492 C13.505999565124512,30.969999313354492 29.948999404907227,30.969999313354492 29.948999404907227,30.969999313354492 C29.948999404907227,30.969999313354492 29.948999404907227,44.2599983215332 29.948999404907227,44.2599983215332 C29.948999404907227,44.2599983215332 9.982999801635742,44.2599983215332 9.982999801635742,44.2599983215332z"></path></g></g><g transform="matrix(1,0,0,1,0,0)" opacity="1" style="display: block;"><g opacity="1" transform="matrix(1,0,0,1,712.6619873046875,553.3720092773438)"><path fill="rgb(255,255,255)" fill-opacity="1" d=" M-32.39099884033203,35.915000915527344 C-32.39099884033203,35.915000915527344 -32.39099884033203,22.93400001525879 -32.39099884033203,22.93400001525879 C-32.39099884033203,22.93400001525879 -15.267999649047852,22.93400001525879 -15.267999649047852,22.93400001525879 C-15.267999649047852,22.93400001525879 -15.267999649047852,-16.566999435424805 -15.267999649047852,-16.566999435424805 C-15.267999649047852,-19.656999588012695 -16.781999588012695,-21.202999114990234 -19.7810001373291,-21.202999114990234 C-19.7810001373291,-21.202999114990234 -30.9689998626709,-21.202999114990234 -30.9689998626709,-21.202999114990234 C-30.9689998626709,-21.202999114990234 -30.9689998626709,-34.24599838256836 -30.9689998626709,-34.24599838256836 C-30.9689998626709,-34.24599838256836 -14.156000137329102,-34.24599838256836 -14.156000137329102,-34.24599838256836 C-10.293000221252441,-34.24599838256836 -7.139999866485596,-33.132999420166016 -4.697999954223633,-30.908000946044922 C-2.2260000705718994,-28.683000564575195 -0.9900000095367432,-25.591999053955078 -0.9900000095367432,-21.63599967956543 C-0.9900000095367432,-21.63599967956543 -0.9900000095367432,-19.966999053955078 -0.9900000095367432,-19.966999053955078 C-0.9900000095367432,-19.966999053955078 -0.24699999392032623,-19.966999053955078 -0.24699999392032623,-19.966999053955078 C0.7730000019073486,-25.236000061035156 2.997999906539917,-29.20800018310547 6.427999973297119,-31.89699935913086 C9.890000343322754,-34.57099914550781 14.913000106811523,-35.915000915527344 21.51099967956543,-35.915000915527344 C21.51099967956543,-35.915000915527344 32.39099884033203,-35.915000915527344 32.39099884033203,-35.915000915527344 C32.39099884033203,-35.915000915527344 32.39099884033203,-20.09000015258789 32.39099884033203,-20.09000015258789 C32.39099884033203,-20.09000015258789 17.12299919128418,-20.09000015258789 17.12299919128418,-20.09000015258789 C11.559000015258789,-20.09000015258789 7.263999938964844,-18.14299964904785 4.265999794006348,-14.279000282287598 C1.2519999742507935,-10.401000022888184 -0.24699999392032623,-5.78000020980835 -0.24699999392032623,-0.43299999833106995 C-0.24699999392032623,-0.43299999833106995 -0.24699999392032623,22.93400001525879 -0.24699999392032623,22.93400001525879 C-0.24699999392032623,22.93400001525879 21.51099967956543,22.93400001525879 21.51099967956543,22.93400001525879 C21.51099967956543,22.93400001525879 21.51099967956543,35.915000915527344 21.51099967956543,35.915000915527344 C21.51099967956543,35.915000915527344 -32.39099884033203,35.915000915527344 -32.39099884033203,35.915000915527344z"></path></g></g><g transform="matrix(1,0,0,1,0,0)" opacity="1" style="display: block;"><g opacity="1" transform="matrix(1,0,0,1,796.6959838867188,537.8870239257812)"><path fill="rgb(255,255,255)" fill-opacity="1" d=" M-1.3910000324249268,-29.517000198364258 C-4.729000091552734,-29.517000198364258 -7.511000156402588,-30.56800079345703 -9.736000061035156,-32.66999816894531 C-11.930999755859375,-34.801998138427734 -13.01200008392334,-37.42900085449219 -13.01200008392334,-40.52000045776367 C-13.01200008392334,-43.641998291015625 -11.930999755859375,-46.237998962402344 -9.736000061035156,-48.308998107910156 C-7.511000156402588,-50.36399841308594 -4.729000091552734,-51.400001525878906 -1.3910000324249268,-51.400001525878906 C1.9780000448226929,-51.400001525878906 4.760000228881836,-50.36399841308594 6.953999996185303,-48.308998107910156 C9.180000305175781,-46.237998962402344 10.291999816894531,-43.641998291015625 10.291999816894531,-40.52000045776367 C10.291999816894531,-37.42900085449219 9.180000305175781,-34.801998138427734 6.953999996185303,-32.66999816894531 C4.760000228881836,-30.56800079345703 1.9780000448226929,-29.517000198364258 -1.3910000324249268,-29.517000198364258z M-29.57900047302246,51.400001525878906 C-29.57900047302246,51.400001525878906 -29.57900047302246,38.41899871826172 -29.57900047302246,38.41899871826172 C-29.57900047302246,38.41899871826172 -7.511000156402588,38.41899871826172 -7.511000156402588,38.41899871826172 C-7.511000156402588,38.41899871826172 -7.511000156402588,-1.0820000171661377 -7.511000156402588,-1.0820000171661377 C-7.511000156402588,-4.171999931335449 -9.024999618530273,-5.7179999351501465 -12.02299976348877,-5.7179999351501465 C-12.02299976348877,-5.7179999351501465 -27.60099983215332,-5.7179999351501465 -27.60099983215332,-5.7179999351501465 C-27.60099983215332,-5.7179999351501465 -27.60099983215332,-18.76099967956543 -27.60099983215332,-18.76099967956543 C-27.60099983215332,-18.76099967956543 -9.364999771118164,-18.76099967956543 -9.364999771118164,-18.76099967956543 C-3.5239999294281006,-18.76099967956543 0.7419999837875366,-17.400999069213867 3.430999994277954,-14.680999755859375 C6.151000022888184,-11.991999626159668 7.510000228881836,-7.757999897003174 7.510000228881836,-1.9470000267028809 C7.510000228881836,-1.9470000267028809 7.510000228881836,38.41899871826172 7.510000228881836,38.41899871826172 C7.510000228881836,38.41899871826172 29.57900047302246,38.41899871826172 29.57900047302246,38.41899871826172 C29.57900047302246,38.41899871826172 29.57900047302246,51.400001525878906 29.57900047302246,51.400001525878906 C29.57900047302246,51.400001525878906 -29.57900047302246,51.400001525878906 -29.57900047302246,51.400001525878906z"></path></g></g><g transform="matrix(1,0,0,1,0,0)" opacity="1" style="display: block;"><g opacity="1" transform="matrix(1,0,0,1,881.5640258789062,554.2069702148438)"><path fill="rgb(255,255,255)" fill-opacity="1" d=" M-33.96699905395508,35.08100128173828 C-33.96699905395508,35.08100128173828 -9.92199993133545,0.03099999949336052 -9.92199993133545,0.03099999949336052 C-9.92199993133545,0.03099999949336052 -34.770999908447266,-35.08000183105469 -34.770999908447266,-35.08000183105469 C-34.770999908447266,-35.08000183105469 -18.08099937438965,-35.08000183105469 -18.08099937438965,-35.08000183105469 C-18.08099937438965,-35.08000183105469 -0.03099999949336052,-8.932000160217285 -0.03099999949336052,-8.932000160217285 C-0.03099999949336052,-8.932000160217285 18.08099937438965,-35.08000183105469 18.08099937438965,-35.08000183105469 C18.08099937438965,-35.08000183105469 34.770999908447266,-35.08000183105469 34.770999908447266,-35.08000183105469 C34.770999908447266,-35.08000183105469 9.92199993133545,0.03099999949336052 9.92199993133545,0.03099999949336052 C9.92199993133545,0.03099999949336052 33.96900177001953,35.08100128173828 33.96900177001953,35.08100128173828 C33.96900177001953,35.08100128173828 17.277999877929688,35.08100128173828 17.277999877929688,35.08100128173828 C17.277999877929688,35.08100128173828 -0.03099999949336052,8.932999610900879 -0.03099999949336052,8.932999610900879 C-0.03099999949336052,8.932999610900879 -17.400999069213867,35.08100128173828 -17.400999069213867,35.08100128173828 C-17.400999069213867,35.08100128173828 -33.96699905395508,35.08100128173828 -33.96699905395508,35.08100128173828z"></path></g></g></g></g><g transform="matrix(1,0,0,1,0,0)" opacity="1" style="display: block;"><g opacity="1" transform="matrix(1,0,0,1,151.61099243164062,540)"><path fill="rgb(255,255,255)" fill-opacity="1" d=" M19.02400016784668,-74.11699676513672 C19.02400016784668,-74.11699676513672 19.02400016784668,-77.36199951171875 19.02400016784668,-77.36199951171875 C12.178000450134277,-77.48600006103516 4.48199987411499,-77.61000061035156 -3.9560000896453857,-77.73300170898438 C-6.058000087738037,-77.76399993896484 -8.220999717712402,-77.79499816894531 -10.399999618530273,-77.82599639892578 C-11.498000144958496,-77.82599639892578 -12.595000267028809,-77.85700225830078 -13.722999572753906,-77.85700225830078 C-14.666000366210938,-77.85700225830078 -15.593000411987305,-77.85700225830078 -16.56599998474121,-77.88800048828125 C-16.56599998474121,-77.88800048828125 -18.158000946044922,-77.88800048828125 -18.158000946044922,-77.88800048828125 C-18.158000946044922,-77.88800048828125 -18.993000030517578,-77.88800048828125 -18.993000030517578,-77.88800048828125 C-18.993000030517578,-77.88800048828125 -18.993000030517578,-77.177001953125 -18.993000030517578,-77.177001953125 C-18.993000030517578,-75.46099853515625 -18.961999893188477,-73.74600219726562 -18.961999893188477,-72 C-18.961999893188477,-72 -18.961999893188477,-68.63099670410156 -18.961999893188477,-68.63099670410156 C-18.961999893188477,-68.63099670410156 -18.961999893188477,-61.722999572753906 -18.961999893188477,-61.722999572753906 C-18.993000030517578,-43.03900146484375 -18.993000030517578,-22.11400032043457 -19.02400016784668,0 C-18.993000030517578,22.083999633789062 -18.993000030517578,43.00899887084961 -18.961999893188477,61.722999572753906 C-18.961999893188477,61.722999572753906 -18.961999893188477,68.64700317382812 -18.961999893188477,68.64700317382812 C-18.961999893188477,68.64700317382812 -18.961999893188477,72 -18.961999893188477,72 C-18.961999893188477,73.74700164794922 -18.993000030517578,75.46199798583984 -18.993000030517578,77.177001953125 C-18.993000030517578,77.177001953125 -18.993000030517578,77.88800048828125 -18.993000030517578,77.88800048828125 C-18.993000030517578,77.88800048828125 -18.158000946044922,77.88800048828125 -18.158000946044922,77.88800048828125 C-18.158000946044922,77.88800048828125 -16.56599998474121,77.88800048828125 -16.56599998474121,77.88800048828125 C-15.638999938964844,77.88800048828125 -14.696999549865723,77.88800048828125 -13.722999572753906,77.85700225830078 C-12.595000267028809,77.85700225830078 -11.498000144958496,77.82599639892578 -10.399999618530273,77.82599639892578 C-8.1899995803833,77.7959976196289 -6.058000087738037,77.76499938964844 -3.9560000896453857,77.73400115966797 C4.451000213623047,77.61000061035156 12.178000450134277,77.48600006103516 19.02400016784668,77.36299896240234 C19.02400016784668,77.36299896240234 19.02400016784668,74.11699676513672 19.02400016784668,74.11699676513672 C12.178000450134277,73.99400329589844 4.48199987411499,73.87000274658203 -3.9560000896453857,73.74700164794922 C-6.058000087738037,73.71600341796875 -8.220999717712402,73.68499755859375 -10.399999618530273,73.65399932861328 C-11.498000144958496,73.65399932861328 -12.595000267028809,73.62300109863281 -13.722999572753906,73.62300109863281 C-13.722999572753906,73.62300109863281 -14.46500015258789,73.62300109863281 -14.46500015258789,73.62300109863281 C-14.46500015258789,73.62300109863281 -14.46500015258789,73.56099700927734 -14.46500015258789,73.56099700927734 C-14.46500015258789,73.56099700927734 -14.434000015258789,73.31400299072266 -14.434000015258789,73.31400299072266 C-14.434000015258789,73.31400299072266 -14.434000015258789,72.94300079345703 -14.434000015258789,72.94300079345703 C-14.434000015258789,72.66500091552734 -14.434000015258789,72.37100219726562 -14.402999877929688,72.09300231933594 C-14.371999740600586,70.9800033569336 -14.340999603271484,69.85199737548828 -14.340999603271484,68.73899841308594 C-14.3100004196167,66.46800231933594 -14.248000144958496,64.1500015258789 -14.217000007629395,61.816001892089844 C-13.892999649047852,43.10100173950195 -13.753999710083008,22.177000045776367 -13.753999710083008,0.06199999898672104 C-13.753999710083008,-22.05299949645996 -13.892999649047852,-42.97700119018555 -14.217000007629395,-61.69200134277344 C-14.248000144958496,-64.0260009765625 -14.3100004196167,-66.3280029296875 -14.340999603271484,-68.5999984741211 C-14.371999740600586,-69.72799682617188 -14.402999877929688,-70.87200164794922 -14.402999877929688,-71.96900177001953 C-14.402999877929688,-72.24700164794922 -14.402999877929688,-72.5250015258789 -14.434000015258789,-72.8030014038086 C-14.434000015258789,-72.8030014038086 -14.434000015258789,-73.19000244140625 -14.434000015258789,-73.19000244140625 C-14.434000015258789,-73.19000244140625 -14.46500015258789,-73.43699645996094 -14.46500015258789,-73.43699645996094 C-14.46500015258789,-73.43699645996094 -14.46500015258789,-73.4990005493164 -14.46500015258789,-73.4990005493164 C-14.46500015258789,-73.4990005493164 -13.722999572753906,-73.4990005493164 -13.722999572753906,-73.4990005493164 C-12.595000267028809,-73.4990005493164 -11.498000144958496,-73.52999877929688 -10.399999618530273,-73.52999877929688 C-8.1899995803833,-73.56099700927734 -6.058000087738037,-73.59200286865234 -3.9560000896453857,-73.62200164794922 C4.48199987411499,-73.87000274658203 12.178000450134277,-73.99299621582031 19.02400016784668,-74.11699676513672z"></path></g></g><g transform="matrix(1,0,0,1,0,0)" opacity="1" style="display: block;"><g opacity="1" transform="matrix(1,0,0,1,928.3889770507812,540)"><path fill="rgb(255,255,255)" fill-opacity="1" d=" M-19.02400016784668,-74.11699676513672 C-19.02400016784668,-74.11699676513672 -19.02400016784668,-77.36199951171875 -19.02400016784668,-77.36199951171875 C-12.178000450134277,-77.48600006103516 -4.48199987411499,-77.61000061035156 3.9560000896453857,-77.73300170898438 C6.058000087738037,-77.76399993896484 8.237000465393066,-77.79499816894531 10.399999618530273,-77.82599639892578 C11.498000144958496,-77.82599639892578 12.595000267028809,-77.85700225830078 13.722999572753906,-77.85700225830078 C14.666000366210938,-77.85700225830078 15.607999801635742,-77.85700225830078 16.566999435424805,-77.88800048828125 C16.566999435424805,-77.88800048828125 18.158000946044922,-77.88800048828125 18.158000946044922,-77.88800048828125 C18.158000946044922,-77.88800048828125 18.993000030517578,-77.88800048828125 18.993000030517578,-77.88800048828125 C18.993000030517578,-77.88800048828125 18.993000030517578,-77.177001953125 18.993000030517578,-77.177001953125 C18.993000030517578,-75.46099853515625 18.961999893188477,-73.74600219726562 18.961999893188477,-72 C18.961999893188477,-72 18.961999893188477,-68.63099670410156 18.961999893188477,-68.63099670410156 C18.961999893188477,-68.63099670410156 18.961999893188477,-61.722999572753906 18.961999893188477,-61.722999572753906 C18.993000030517578,-43.03900146484375 18.993000030517578,-22.11400032043457 19.02400016784668,0 C18.993000030517578,22.083999633789062 18.993000030517578,43.00899887084961 18.961999893188477,61.722999572753906 C18.961999893188477,61.722999572753906 18.961999893188477,68.64700317382812 18.961999893188477,68.64700317382812 C18.961999893188477,68.64700317382812 18.961999893188477,72 18.961999893188477,72 C18.961999893188477,73.74700164794922 18.993000030517578,75.46199798583984 18.993000030517578,77.177001953125 C18.993000030517578,77.177001953125 18.993000030517578,77.88800048828125 18.993000030517578,77.88800048828125 C18.993000030517578,77.88800048828125 18.158000946044922,77.88800048828125 18.158000946044922,77.88800048828125 C18.158000946044922,77.88800048828125 16.566999435424805,77.88800048828125 16.566999435424805,77.88800048828125 C15.638999938964844,77.88800048828125 14.696999549865723,77.88800048828125 13.722999572753906,77.85700225830078 C12.595000267028809,77.85700225830078 11.498000144958496,77.82599639892578 10.399999618530273,77.82599639892578 C8.1899995803833,77.7959976196289 6.058000087738037,77.76499938964844 3.9560000896453857,77.73400115966797 C-4.451000213623047,77.61000061035156 -12.178000450134277,77.48600006103516 -19.02400016784668,77.36299896240234 C-19.02400016784668,77.36299896240234 -19.02400016784668,74.11699676513672 -19.02400016784668,74.11699676513672 C-12.178000450134277,73.99400329589844 -4.48199987411499,73.87000274658203 3.9560000896453857,73.74700164794922 C6.058000087738037,73.71600341796875 8.237000465393066,73.68499755859375 10.399999618530273,73.65399932861328 C11.498000144958496,73.65399932861328 12.595000267028809,73.62300109863281 13.722999572753906,73.62300109863281 C13.722999572753906,73.62300109863281 14.46500015258789,73.62300109863281 14.46500015258789,73.62300109863281 C14.46500015258789,73.62300109863281 14.46500015258789,73.56099700927734 14.46500015258789,73.56099700927734 C14.46500015258789,73.56099700927734 14.434000015258789,73.31400299072266 14.434000015258789,73.31400299072266 C14.434000015258789,73.31400299072266 14.434000015258789,72.94300079345703 14.434000015258789,72.94300079345703 C14.434000015258789,72.66500091552734 14.434000015258789,72.37100219726562 14.402999877929688,72.09300231933594 C14.371999740600586,70.9800033569336 14.340999603271484,69.85199737548828 14.340999603271484,68.73899841308594 C14.3100004196167,66.46800231933594 14.248000144958496,64.1500015258789 14.218000411987305,61.816001892089844 C13.892999649047852,43.10100173950195 13.753999710083008,22.177000045776367 13.753999710083008,0.06199999898672104 C13.753999710083008,-22.05299949645996 13.892999649047852,-42.97700119018555 14.218000411987305,-61.69200134277344 C14.248000144958496,-64.0260009765625 14.3100004196167,-66.3280029296875 14.340999603271484,-68.5999984741211 C14.371999740600586,-69.72799682617188 14.402999877929688,-70.87200164794922 14.402999877929688,-71.96900177001953 C14.402999877929688,-72.24700164794922 14.402999877929688,-72.5250015258789 14.434000015258789,-72.8030014038086 C14.434000015258789,-72.8030014038086 14.434000015258789,-73.19000244140625 14.434000015258789,-73.19000244140625 C14.434000015258789,-73.19000244140625 14.46500015258789,-73.43699645996094 14.46500015258789,-73.43699645996094 C14.46500015258789,-73.43699645996094 14.46500015258789,-73.4990005493164 14.46500015258789,-73.4990005493164 C14.46500015258789,-73.4990005493164 13.722999572753906,-73.4990005493164 13.722999572753906,-73.4990005493164 C12.595000267028809,-73.4990005493164 11.498000144958496,-73.52999877929688 10.399999618530273,-73.52999877929688 C8.1899995803833,-73.56099700927734 6.058000087738037,-73.59200286865234 3.9560000896453857,-73.62200164794922 C-4.48199987411499,-73.87000274658203 -12.178000450134277,-73.99299621582031 -19.02400016784668,-74.11699676513672z"></path></g></g><g transform="matrix(1,0,0,1,542,538)" opacity="1" style="display: none;"><g opacity="1" transform="matrix(1,0,0,1,0,0)"><path stroke-linecap="butt" stroke-linejoin="miter" fill-opacity="0" stroke-miterlimit="4" stroke="rgb(255,255,255)" stroke-opacity="1" stroke-width="5" d=" M-2,-59 C-2,-59 -2,67 -2,67"></path></g></g></g></svg>